<svg xmlns="http://www.w3.org/2000/svg" xml:space="preserve" width="2048" height="2048" style="shape-rendering:geometricPrecision;text-rendering:geometricPrecision;image-rendering:optimizeQuality;fill-rule:evenodd;clip-rule:evenodd"><defs><clipPath id="id0"><path d="M1024 0c565.539 0 1024 458.461 1024 1024s-458.461 1024-1024 1024S0 1589.539 0 1024 458.461 0 1024 0z"/></clipPath><style>.fil1{fill:#424242}</style></defs><g id="Layer_x0020_1"><path d="M1024 0c565.539 0 1024 458.461 1024 1024s-458.461 1024-1024 1024S0 1589.539 0 1024 458.461 0 1024 0z" style="fill:#757575"/><g style="clip-path:url(#id0)"><g id="_341213056"><path id="_3384352081" class="fil1" d="M1183.22 599.341 2319.1 1735.22l-1.48 3.68-1.52 3.69-1.57 3.71-1.62 3.73-1.66 3.75-1.71 3.75-1.75 3.77-1.79 3.77-1.84 3.78-1.87 3.77-1.92 3.78-1.96 3.77-2 3.77-2.04 3.76-2.08 3.75-2.12 3.74-2.15 3.72-2.2 3.7-2.22 3.68-2.27 3.66-2.3 3.64-2.34 3.61-2.37 3.57-2.4 3.55-2.44 3.51-2.47 3.47-2.5 3.43-2.54 3.39-2.56 3.35-2.6 3.3-2.62 3.24-2.66 3.2L1115.65 715.328l2.66-3.196 2.62-3.248 2.6-3.298 2.56-3.345 2.54-3.389 2.5-3.433 2.47-3.472 2.44-3.51 2.4-3.545 2.37-3.577 2.34-3.607 2.3-3.636 2.26-3.66 2.23-3.683 2.2-3.703 2.15-3.721 2.12-3.737 2.08-3.749 2.04-3.761 2-3.767 1.96-3.774 1.92-3.776 1.87-3.778 1.84-3.775 1.79-3.771 1.75-3.766 1.71-3.756 1.66-3.743 1.61-3.729 1.58-3.714 1.52-3.694z"/><path id="_338435184" class="fil1" d="M1254.07 830.956 2389.95 1966.84l10.43 11.63 10.32 11.93 10.18 12.22 10.03 12.49 9.86 12.75 9.69 13 9.5 13.22 9.29 13.44 9.07 13.64 8.84 13.82 8.59 13.98 8.33 14.15 8.06 14.27 7.76 14.41 7.46 14.51 7.15 14.6 6.81 14.69 6.47 14.74 6.11 14.8 5.74 14.83-1135.88-1135.89-5.74-14.82-6.11-14.8-6.47-14.75-6.81-14.68-7.15-14.6-7.46-14.51-7.77-14.41-8.05-14.277-8.33-14.142-8.59-13.987-8.84-13.819-9.07-13.636-9.29-13.438-9.5-13.223-9.69-12.996-9.86-12.752-10.03-12.494-10.18-12.221-10.32-11.931z"/><path id="_338434944" class="fil1" d="M884.708 716.083 2020.59 1851.97l-.06-.07L884.645 716.019z"/><path id="_338435280" class="fil1" d="m1457.54 1316.46 1135.88 1135.88-.72 6.47-.85 6.44-.97 6.39-1.11 6.34-1.24 6.29-1.36 6.25-1.51 6.2-1.63 6.14-1.78 6.1-1.91 6.04-2.05 5.98-2.19 5.93-2.33 5.86-2.48 5.81-2.61 5.75-2.77 5.68-2.91 5.62-3.06 5.55-3.21 5.49-3.36 5.42-3.51 5.34-3.67 5.28-3.82 5.2-3.98 5.13-4.13 5.05-4.3 4.98-4.45 4.89-4.62 4.82-4.78 4.73-4.95 4.66-5.11 4.56-5.27 4.48L1364.9 1495.33l5.27-4.48 5.11-4.57 4.95-4.65 4.78-4.73 4.61-4.82 4.46-4.9 4.29-4.97 4.14-5.05 3.98-5.13 3.82-5.2 3.67-5.28 3.51-5.35 3.36-5.41 3.21-5.49 3.06-5.55 2.91-5.62 2.77-5.69 2.61-5.74 2.48-5.81 2.33-5.87 2.19-5.92 2.05-5.99 1.91-6.03 1.77-6.1 1.64-6.14 1.5-6.2 1.37-6.25 1.24-6.29 1.11-6.35.97-6.39.85-6.43z"/><path id="_338434992" class="fil1" d="m1364.9 1495.33 1135.88 1135.88-7.56 6.04-7.89 5.86-8.21 5.68-8.54 5.49-8.88 5.3-9.21 5.1-9.56 4.91-9.9 4.71-10.26 4.49-10.6 4.29-10.97 4.07-11.32 3.86-11.68 3.63-12.06 3.4-12.42 3.17-12.8 2.94-13.18 2.7-13.55 2.45-13.95 2.21-14.33 1.95-14.73 1.7-15.12 1.44-15.52 1.18-15.92.9-16.33.64-16.75.36-17.15.07-17.58-.2-17.99-.5-18.42-.79-18.85-1.08-19.28-1.39L944.387 1579.91l19.281 1.39 18.848 1.08 18.424.79 17.99.49 17.58.21 17.15-.08 16.74-.35 16.34-.64 15.92-.91 15.52-1.17 15.12-1.44 14.73-1.7 14.33-1.95 13.94-2.21 13.56-2.45 13.18-2.7 12.8-2.94 12.42-3.17 12.06-3.4 11.68-3.64 11.32-3.85 10.97-4.07 10.6-4.29 10.25-4.5 9.91-4.7 9.56-4.91 9.21-5.1 8.88-5.31 8.54-5.49 8.21-5.67 7.89-5.86z"/><path id="_338435784" class="fil1" d="M944.387 1579.91 2080.27 2715.79l-11.64-1-11.42-1.15-11.19-1.3-10.97-1.45-10.75-1.59-10.54-1.73-10.31-1.88-10.11-2.02-9.88-2.15-9.68-2.29-9.46-2.42-9.26-2.56-9.05-2.68-8.84-2.82-8.64-2.94-8.43-3.07-8.23-3.19-8.04-3.32-7.83-3.43-7.64-3.55-7.44-3.67-7.25-3.78-7.06-3.9-6.86-4.01-6.68-4.12-6.49-4.22-6.3-4.33-6.12-4.44-5.94-4.53-5.75-4.64-5.58-4.74L681.011 1486.99l5.574 4.74 5.754 4.63 5.936 4.54 6.12 4.44 6.303 4.33 6.489 4.22 6.677 4.12 6.866 4.01 7.057 3.89 7.249 3.79 7.443 3.67 7.638 3.55 7.834 3.43 8.034 3.31 8.232 3.2 8.436 3.06 8.637 2.95 8.842 2.81 9.048 2.69 9.255 2.55 9.464 2.43 9.676 2.29 9.888 2.15 10.101 2.02 10.317 1.87 10.533 1.74 10.752 1.59 10.971 1.45 11.193 1.3 11.416 1.15z"/><path id="_338435904" class="fil1" d="M893.309 724.621 2029.19 1860.5l-1.09-1.04-1.09-1.05-1.08-1.06-1.08-1.06-1.07-1.07-1.07-1.08-1.06-1.08-1.06-1.09L884.708 716.083l1.058 1.09 1.063 1.084 1.068 1.077 1.072 1.072 1.079 1.064 1.081 1.058 1.087 1.05z"/><path id="_338436288" class="fil1" d="m1423.76 1104.07 1135.88 1135.89 2.49 6.77 2.41 6.77 2.33 6.78 2.25 6.78 2.16 6.78 2.08 6.79 1.99 6.78 1.9 6.77 1.82 6.78 1.73 6.76 1.63 6.76 1.54 6.75 1.45 6.74 1.36 6.73 1.25 6.72 1.16 6.7 1.06 6.69.96 6.67.86 6.65.76 6.63.65 6.61.55 6.59.44 6.57.33 6.54.22 6.51.12 6.49v6.46l-.11 6.43-.23 6.39-.34 6.37-.46 6.33-.58 6.29-1135.88-1135.88.58-6.3.46-6.32.34-6.37.22-6.39.12-6.43v-6.46l-.12-6.49-.22-6.51-.33-6.54-.44-6.57-.55-6.59-.65-6.61-.76-6.63-.86-6.66-.96-6.67-1.06-6.68-1.16-6.71-1.26-6.71-1.35-6.73-1.45-6.74-1.54-6.75-1.63-6.76-1.73-6.77-1.82-6.77-1.9-6.78-1.99-6.78-2.08-6.78-2.17-6.78-2.24-6.78-2.33-6.78-2.41-6.78z"/><path id="_338435712" class="fil1" d="M1193.75 479.873 2329.63 1615.76l1 1.23.94 1.28.9 1.34.84 1.39.79 1.44.74 1.5.68 1.54.64 1.59.58 1.64.54 1.68.48 1.74.44 1.77.39 1.83.33 1.86.29 1.91.24 1.95.19 1.99.14 2.03.09 2.07.04 2.11v2.15l-.05 2.18-.1 2.22-.14 2.26-.19 2.29-.24 2.32-.28 2.36-.33 2.38L1202.7 531.932l.33-2.388.28-2.355.24-2.323.19-2.29.14-2.255.1-2.221.05-2.183v-2.148l-.04-2.109-.09-2.071-.15-2.031-.18-1.991-.24-1.95-.29-1.909-.34-1.865-.38-1.823-.44-1.776-.48-1.733-.54-1.685-.58-1.638-.64-1.591-.69-1.543-.73-1.493-.79-1.442-.84-1.39-.9-1.339-.94-1.285z"/><path id="_338435952" class="fil1" d="M1202.7 531.932 2338.58 1667.81l-.27 1.77-.29 1.79-.32 1.83-.34 1.84-.36 1.88-.38 1.9-.41 1.93-.43 1.95-.45 1.97-.47 2-.5 2.02-.52 2.04-.54 2.07-.56 2.08-.59 2.11-.6 2.12-.63 2.14-.64 2.17-.67 2.17-.69 2.2-.71 2.21-.73 2.23-.75 2.24-.77 2.26-.79 2.27-.81 2.28-.83 2.3-.84 2.31-.87 2.32-.89 2.33-.91 2.33-.92 2.35L1183.22 599.341l.92-2.349.91-2.338.89-2.331.86-2.318.85-2.308.83-2.296.81-2.284.79-2.27.77-2.258.75-2.242.73-2.228.71-2.212.69-2.196.67-2.178.64-2.161.63-2.143.6-2.125.59-2.104.56-2.085.54-2.063.52-2.044.49-2.019.48-1.999.45-1.975.43-1.951.41-1.925.38-1.902.36-1.875.34-1.849.32-1.821.29-1.794z"/><path id="_341212672" class="fil1" d="M1183.22 599.341c-15.511 39.056-39.102 82.185-67.565 115.987 1.561.896 3.124 1.813 4.689 2.745l2.31 1.386.137.083.138.084.137.083.139.084.137.082.137.084.138.084.137.084.138.083.137.083.138.084.137.084.138.084c114.96 70.08 240.161 225.236 299.32 383.529 26.978 72.187 40.567 145.454 33.782 212.382-7.023 69.293-35.459 131.538-92.645 178.876-78.92 65.326-212.528 100.977-420.51 84.58-125.366-9.885-212.158-45.678-268.771-97.759-57.735-53.108-83.608-122.249-86.594-197.895-2.887-73.163 15.94-152.28 47.975-228.275 58.241-138.164 161.15-267.412 256.312-331.362a280.334 280.334 0 0 1-8.6-8.538l-.063-.064c-48.785-50.552-114.993-167.739-74.772-225.197 31.605-45.103 77.287-23.461 116.805-4.691 22.756 10.807 47.118 22.377 66.701 19.974 13.448-2.208 33.493-8.377 55.056-15.013 44.402-13.665 94.63-29.123 127.39-22 4.925 1.07 9.39 3.23 13.4 6.408 13.195 10.448 17.228 30.798 13.471 56.433-2.737 18.679-9.511 42.308-19.48 67.409z"/></g></g><path d="M1024 0c565.539 0 1024 458.461 1024 1024s-458.461 1024-1024 1024S0 1589.539 0 1024 458.461 0 1024 0z" style="fill:none"/><path d="M1183.22 599.463c-15.511 39.056-39.102 82.185-67.565 115.987 117.308 67.36 247.438 226.413 308.107 388.746 26.978 72.187 40.566 145.454 33.782 212.382-7.023 69.293-35.46 131.538-92.646 178.876-78.92 65.326-212.528 100.977-420.509 84.58-125.367-9.885-212.159-45.678-268.772-97.759-57.735-53.108-83.608-122.249-86.594-197.895-2.886-73.163 15.94-152.28 47.976-228.275 58.241-138.164 161.15-267.412 256.312-331.362-33.797-32.095-60.903-74.464-77.225-114.064-19.8-48.03-23.842-94.548-6.21-119.736 1.098-1.572 2.047-2.833 2.84-3.775l.048.04c33.169-39.308 71.6-21.055 113.916-.956 22.756 10.807 47.119 22.377 66.702 19.974 13.448-2.208 33.492-8.377 55.056-15.013 44.402-13.665 94.63-29.123 127.39-22 4.925 1.07 9.39 3.23 13.4 6.408 13.194 10.448 17.228 30.798 13.47 56.433-2.737 18.679-9.51 42.308-19.479 67.409z" style="fill:#fdd835"/><path d="M1183.22 599.463c-15.511 39.056-39.102 82.185-67.565 115.987a390.076 390.076 0 0 1 8.787 5.217H889.113c-31.842-31.556-57.386-72.043-73.026-109.988-19.8-48.03-23.843-94.549-6.211-119.736 1.098-1.572 2.048-2.834 2.841-3.775l.048.04c33.168-39.308 71.6-21.055 113.916-.956 22.756 10.807 47.118 22.377 66.701 19.973 13.448-2.207 33.493-8.376 55.056-15.013 44.402-13.664 94.63-29.122 127.39-22 4.925 1.071 9.39 3.231 13.4 6.408 13.195 10.448 17.228 30.799 13.471 56.434-2.737 18.679-9.511 42.308-19.48 67.409z" style="fill:#fbc02d"/><path d="M1091.73 1272.52c-.132.243-.266.463-.353.63.077-.145.198-.364.353-.63zm51.432-8.739c-2.47 22.739-14.529 43.309-32.54 57.274-19.024 14.75-42.89 21.608-66.6 23.536v25.131c0 6.726-2.944 13.231-7.973 17.684-6.921 6.118-17.094 7.626-25.485 3.758-8.3-3.812-13.745-12.323-13.745-21.442v-27.467a155.47 155.47 0 0 1-12.092-2.789c-22.158-6.097-42.716-17.956-57.73-35.518-7.476-8.753-13.582-18.683-17.791-29.41a105.753 105.753 0 0 1-2.944-8.541c-.782-2.614-1.586-5.26-1.862-7.98a23.694 23.694 0 0 1 2.566-13.306c4.379-8.368 13.595-13.416 23.01-12.579 9.269.827 17.38 7.252 20.304 16.083.902 2.724 1.51 5.511 2.513 8.2a52.51 52.51 0 0 0 3.638 7.74 60.086 60.086 0 0 0 10.36 13.27c8.336 8.026 18.96 13.251 30.028 16.359v-93.378c-21.65-5.61-44.006-12.84-61.887-26.74-8.685-6.77-16.058-15.159-20.887-25.103-5.093-10.491-7.21-22.178-7.287-33.784-.087-11.785 2.151-23.483 7.067-34.216 4.609-10.053 11.231-19.081 19.368-26.566 17.382-15.996 40.466-24.922 63.626-28.199v-26.091c0-6.723 2.943-13.228 7.98-17.68 6.911-6.118 17.076-7.628 25.485-3.76 8.291 3.813 13.739 12.313 13.739 21.44v25.95c3.083.383 6.16.858 9.223 1.411 22.742 4.111 44.987 13.504 61.62 29.904a90.322 90.322 0 0 1 18.861 27.107 85.965 85.965 0 0 1 3.328 8.63c.895 2.745 1.798 5.555 2.226 8.424.686 4.55-.008 9.269-1.973 13.445-4.001 8.556-12.963 14-22.409 13.594-9.269-.409-17.67-6.447-20.989-15.115-.99-2.58-1.487-5.302-2.489-7.881-1.026-2.6-2.34-5.08-3.86-7.427-2.953-4.568-6.779-8.466-11.144-11.697-9.468-6.979-20.932-10.617-32.394-12.654v89.354c13.622 3.262 27.258 6.824 40.31 11.972 19.732 7.782 38.427 19.708 49.183 38.513-1.662-2.92-3.293-5.785.067.102 3.286 5.774 1.719 3.03.066.13 8.567 15.102 11.378 33.158 9.513 50.312zm-50.739 7.495c-.11.198-.231.407-.352.626.143-.25.254-.44.352-.626zm-132.73-176.284c-3.087 4.51-5.025 9.635-5.557 15.092-.538 5.454-.242 11.53 1.84 16.666 1.977 4.905 6.107 8.52 10.385 11.432 4.784 3.262 10.066 5.807 15.435 7.958 4.497 1.82 9.568 3.55 15.023 5.225v-77.659c-13.79 2.943-28.868 9.228-37.127 21.286zm132.29 177.078c.032-.058.055-.099.089-.167-.034.056-.057.11-.089.167zm-2.732-39.884c-3.585-3.922-8.115-6.853-12.8-9.303-10.196-5.323-21.352-8.553-32.428-11.464v85.828c17.978-2.03 38.612-8.554 48.049-25.344 4.51-8.01 5.4-17.87 3.573-26.786-.994-4.84-3.055-9.271-6.394-12.931z" style="fill:#f9a825"/></g></svg>